<svg width="24" height="20" viewBox="0 0 24 20" fill="none" xmlns="http://www.w3.org/2000/svg">
<path d="M7.54752 20C16.6042 20 21.5578 12.3063 21.5578 5.63441C21.5578 5.41589 21.553 5.19835 21.5434 4.98179C22.5043 4.26912 23.3405 3.38025 24 2.36736C23.1178 2.76897 22.1683 3.03967 21.1718 3.16173C22.1885 2.53667 22.969 1.5474 23.3366 0.369131C22.3853 0.947928 21.3312 1.36825 20.2099 1.59465C19.3123 0.614234 18.0326 0 16.6166 0C13.897 0 11.6918 2.26105 11.6918 5.04873C11.6918 5.44542 11.735 5.8303 11.8195 6.19943C7.728 5.98878 4.09824 3.97972 1.6704 0.924304C1.24704 1.67044 1.0032 2.53765 1.0032 3.46195C1.0032 5.2141 1.87296 6.75952 3.19392 7.66414C2.38656 7.63855 1.6272 7.41116 0.96384 7.03219C0.96288 7.05286 0.96288 7.07451 0.96288 7.09617C0.96288 9.54129 2.66016 11.5828 4.91328 12.0455C4.49952 12.1606 4.06464 12.2227 3.61536 12.2227C3.29856 12.2227 2.98944 12.1902 2.68992 12.1311C3.3168 14.1372 5.13408 15.597 7.29024 15.6374C5.60448 16.9918 3.48192 17.799 1.17504 17.799C0.7776 17.799 0.38592 17.7754 0 17.7291C2.1792 19.1643 4.7664 20 7.54752 20Z" fill="#1DA1F2"/>
</svg>
